/* XPM */
static char * mcedit_xpm[] = {
"32 32 7 1",
" 	c None",
".	c #CCCCCC",
"+	c #E5E5E5",
"@	c #00FFFF",
"#	c #333333",
"$	c #0000FF",
"%	c #000000",
".+.+.+..+..+.+.+.+.+..++..+..+.+",
".@@@@@@@@@@@@@@@@@@@@@@@@@@@@@@#",
"+$$$$$$$$$$$$$$$$$$$$$$$$$$$$$$#",
".$$$$$$$$$$$$$$$$$$$$$$$$$$$$$$#",
".$$$$$$$$$$$$$$$$$$$$$$$$$$$$$$#",
"+$@@@@$@@$@@$@$$@@@$$$@@@$$$$$$#",
".$$$$$$$$$$$$$$$$$$$$$$$$$$$$$$#",
"+$@$@@@@$@@@@$@$$@@@@$$$$$$$$$$#",
".$$$$$$$$$$$$$$$$$$$$$$$$$$$$$$#",
"+$@@@@$@@$$@@$@$$$$$$$$$$$$$$$$#",
".$$$$$$$$$$$$$$$$$$$$$$$$$$$$$$#",
"+$@@$@@$@$@@@$$$@$$@@@@@$$$$$$$#",
".$$$$$$$$$$$$$$$$$$$$$$$$$$$$$$#",
"+$@@$@@$@$@@$$$$$$$$$$$$$$$$$$$#",
".$$$$$$$$$$$$$$$$$$$$$$$$$$$$$$#",
".$@@$@@@@$@$$$$$$$$$$$$$$$$$$$$#",
".$$$$$$$$$$$$$$$$$$$$$$$$$$$$$$#",
"+$@@@@$@$$$$$$$$$$$$$$$$$$$$$$$#",
".$$$$$$$$$$$$$$$$$$$$$$$$$$$$$$#",
"+$$$$$$$$$$$$$$$$$$$$$$$$$$$$$$#",
".$$$$$$$$$$$$$$$$$$$$$$$$$$$$$$#",
"+$$$$$$$$@@@@@@$$@$$@$$$$$$$$$$#",
".$$$$$$$$$$$$$$$$$$$$$$$$$$$$$$#",
"+$$$$$$$$$$$$$$$$$$$$$$$$$$$$$$#",
".$$$$$$$$$$$$$$$$$$$$$$$$$$$$$$#",
".$$$$$$$$$$$$$$$$$$$$$$$$$$$$$$#",
"+$$$$$$$$$$$$$$$$$$$$$$$$$$$$$$#",
".$$$$$$$$$$$$$$$$$$$$$$$$$$$$$$#",
".$$$$$$$$$$$$$$$$$$$$$$$$$$$$$$#",
"+$$$$$$$$$$$$$$$$$$$$$$$$$$$$$$#",
".@@@@%@@@@%@@@@%@@@@@%@@@@%@@@@#",
".###############################"};
